<svg width="100" height="100" viewBox="0 0 100 100" fill="none" xmlns="http://www.w3.org/2000/svg">
<g clip-path="url(#clip0_334_2)">
<path d="M50.0069 0C31.2472 0 16.0366 15.1083 16.0366 33.746C16.0366 43.2806 25.3895 60.3623 25.3895 60.3623L48.7548 100L73.1337 60.8251C73.1337 60.8251 83.963 44.5271 83.963 33.746C83.9659 15.1083 68.7582 0 50.0069 0ZM49.8479 52.3325C39.1037 52.3325 30.401 43.6299 30.401 32.8743C30.401 22.1329 39.1009 13.4359 49.8479 13.4359C60.5864 13.4359 69.2976 22.1329 69.2976 32.8743C69.2976 43.6299 60.5864 52.3325 49.8479 52.3325Z" fill="#2E8B57"/>
</g>
<defs>
<clipPath id="clip0_334_2">
<rect width="100" height="100" fill="white"/>
</clipPath>
</defs>
</svg>
